<svg xmlns="http://www.w3.org/2000/svg" width="1920" height="1080" viewBox="0 0 1920 1080" role="img" aria-labelledby="title desc"><title id="title">ExpertFlow architecture video frame</title><desc id="desc">Stock routes expert work through CPU while ExpertFlow keeps selected complete banks on CUDA.</desc><rect width="1920" height="1080" fill="#101311"/><style>text{font-family:Segoe UI,Arial,sans-serif}.m{font-family:Consolas,monospace}.h{font-size:54px;font-weight:800}.n{font-size:30px;font-weight:700}.s{font-size:23px}</style><text x="120" y="120" class="h" fill="#f4f2e9">THE LAYER COUNT HIDES THE BOTTLENECK</text><g transform="translate(120 235)"><text class="m n" fill="#bf665e">STOCK</text><g fill="#242925" stroke="#9fb9a5" stroke-width="3"><rect y="60" width="360" height="150" rx="10"/><rect x="520" y="60" width="480" height="150" rx="10"/><rect x="1160" y="60" width="360" height="150" rx="10"/></g><g text-anchor="middle" class="n" fill="#f4f2e9"><text x="180" y="145">ROUTER · GPU</text><text x="760" y="130">EXPERT MATMULS</text><text x="760" y="172" class="m s" fill="#bf665e">CPU</text><text x="1340" y="145">COPY · GPU</text></g><path d="M360 135h150m490 0h150" stroke="#bf665e" stroke-width="8" stroke-dasharray="14 12"/><text x="1540" y="145" class="m s" fill="#bf665e">BOUNDARY</text></g><g transform="translate(120 630)"><text class="m n" fill="#d6a84a">EXPERTFLOW</text><g fill="#0b3d20" stroke="#d6a84a" stroke-width="4"><rect y="60" width="360" height="150" rx="10"/><rect x="520" y="60" width="480" height="150" rx="10"/><rect x="1160" y="60" width="360" height="150" rx="10"/></g><g text-anchor="middle" class="n" fill="#f4f2e9"><text x="180" y="145">ROUTER · GPU</text><text x="760" y="130">COMPLETE Q6 BANKS</text><text x="760" y="172" class="m s" fill="#8cf59b">PERSISTENT CUDA</text><text x="1340" y="145">OUTPUT · GPU</text></g><path d="M360 135h150m490 0h150" stroke="#8cf59b" stroke-width="8"/><circle cx="435" cy="135" r="10" fill="#d6a84a"/><circle cx="1075" cy="135" r="10" fill="#d6a84a"/></g></svg>
