<svg xmlns="http://www.w3.org/2000/svg" width="1920" height="1080" viewBox="0 0 1920 1080" role="img" aria-labelledby="title desc"><title id="title">ExpertFlow title frame</title><desc id="desc">A placement compiler for quantized mixture-of-experts models.</desc><defs><radialGradient id="g"><stop stop-color="#12572b"/><stop offset="1" stop-color="#101311"/></radialGradient></defs><rect width="1920" height="1080" fill="url(#g)"/><g stroke="#4fbf68" fill="none" stroke-width="3" opacity=".55"><path d="M0 170h380l110 110h360"/><path d="M1920 870h-420l-120-120h-300"/><path d="M220 1080V820l120-120h220"/><path d="M1690 0v220l-95 95h-210"/></g><style>text{font-family:Segoe UI,Arial,sans-serif}.m{font-family:Consolas,monospace}.brand{font-size:136px;font-weight:850;letter-spacing:-4px}.sub{font-size:37px}</style><path d="M790 210c145 100 140 225 15 330s-132 235 17 345c-76-18-170-94-193-202-26-122 67-207 129-271 62-63 75-127 32-202z" fill="#101311" stroke="#d6a84a" stroke-width="10"/><text x="960" y="535" text-anchor="middle" class="brand" fill="#f4f2e9">Expert<tspan fill="#d6a84a">Flow</tspan></text><text x="960" y="615" text-anchor="middle" class="sub" fill="#9fb9a5">A placement compiler for quantized MoE models.</text><text x="960" y="785" text-anchor="middle" class="m" font-size="28" fill="#8cf59b">28.13 TPS · +22.48% · 16 GB GPU · Q6</text></svg>
