<svg xmlns="http://www.w3.org/2000/svg" width="1200" height="430" viewBox="0 0 1200 430" role="img" aria-labelledby="title desc">
  <title id="title">ExpertFlow selected expert-bank layers</title><desc id="desc">Complete 128-expert Q6 banks for layers zero through nine, fifteen, and twenty are CUDA-resident.</desc><rect width="1200" height="430" rx="24" fill="#101311"/><style>text{font-family:Segoe UI,Arial,sans-serif}.mono{font-family:Consolas,monospace}.h{font-size:28px;font-weight:800}.s{font-size:14px;letter-spacing:1px}.off{fill:#242925;stroke:#405047}.on{fill:#0b3d20;stroke:#d6a84a;stroke-width:3}</style>
  <text x="58" y="58" class="h" fill="#f4f2e9">PLACEMENT BOARD</text><text x="1140" y="56" text-anchor="end" class="s mono" fill="#8cf59b">12 COMPLETE BANKS · 128 EXPERTS EACH · Q6_K</text>
  <g stroke="#4fbf68" stroke-width="2" opacity=".35"><path d="M0 104h40"/><path d="M1160 104h40"/><path d="M0 350h40"/><path d="M1160 350h40"/></g>
  <g id="layers" font-family="Consolas,monospace" font-size="16" text-anchor="middle">
    <g fill="#f4f2e9"><rect class="on" x="58" y="112" width="92" height="70" rx="7"/><text x="104" y="154">L00</text><rect class="on" x="168" y="112" width="92" height="70" rx="7"/><text x="214" y="154">L01</text><rect class="on" x="278" y="112" width="92" height="70" rx="7"/><text x="324" y="154">L02</text><rect class="on" x="388" y="112" width="92" height="70" rx="7"/><text x="434" y="154">L03</text><rect class="on" x="498" y="112" width="92" height="70" rx="7"/><text x="544" y="154">L04</text><rect class="on" x="608" y="112" width="92" height="70" rx="7"/><text x="654" y="154">L05</text><rect class="on" x="718" y="112" width="92" height="70" rx="7"/><text x="764" y="154">L06</text><rect class="on" x="828" y="112" width="92" height="70" rx="7"/><text x="874" y="154">L07</text><rect class="on" x="938" y="112" width="92" height="70" rx="7"/><text x="984" y="154">L08</text><rect class="on" x="1048" y="112" width="92" height="70" rx="7"/><text x="1094" y="154">L09</text></g>
    <g fill="#9fb9a5"><rect class="off" x="58" y="215" width="92" height="70" rx="7"/><text x="104" y="257">L10</text><rect class="off" x="168" y="215" width="92" height="70" rx="7"/><text x="214" y="257">L11</text><rect class="off" x="278" y="215" width="92" height="70" rx="7"/><text x="324" y="257">L12</text><rect class="off" x="388" y="215" width="92" height="70" rx="7"/><text x="434" y="257">L13</text><rect class="off" x="498" y="215" width="92" height="70" rx="7"/><text x="544" y="257">L14</text><rect class="on" x="608" y="215" width="92" height="70" rx="7"/><text x="654" y="257" fill="#f4f2e9">L15</text><rect class="off" x="718" y="215" width="92" height="70" rx="7"/><text x="764" y="257">L16</text><rect class="off" x="828" y="215" width="92" height="70" rx="7"/><text x="874" y="257">L17</text><rect class="off" x="938" y="215" width="92" height="70" rx="7"/><text x="984" y="257">L18</text><rect class="off" x="1048" y="215" width="92" height="70" rx="7"/><text x="1094" y="257">L19</text></g>
    <g fill="#9fb9a5"><rect class="on" x="58" y="318" width="92" height="70" rx="7"/><text x="104" y="360" fill="#f4f2e9">L20</text><rect class="off" x="168" y="318" width="92" height="70" rx="7"/><text x="214" y="360">L21</text><rect class="off" x="278" y="318" width="92" height="70" rx="7"/><text x="324" y="360">L22</text><rect class="off" x="388" y="318" width="92" height="70" rx="7"/><text x="434" y="360">L23</text><rect class="off" x="498" y="318" width="92" height="70" rx="7"/><text x="544" y="360">L24</text><rect class="off" x="608" y="318" width="92" height="70" rx="7"/><text x="654" y="360">L25</text><rect class="off" x="718" y="318" width="92" height="70" rx="7"/><text x="764" y="360">L26</text><rect class="off" x="828" y="318" width="92" height="70" rx="7"/><text x="874" y="360">L27</text><rect class="off" x="938" y="318" width="92" height="70" rx="7"/><text x="984" y="360">L28</text><rect class="off" x="1048" y="318" width="92" height="70" rx="7"/><text x="1094" y="360">L29</text></g>
  </g>
</svg>
