<svg xmlns="http://www.w3.org/2000/svg" width="1200" height="220" viewBox="0 0 1200 220" role="img" aria-labelledby="t d">
  <title id="t">ExpertFlow layer placement</title><desc id="d">Layers zero through nine, fifteen, and twenty have complete expert banks on CUDA.</desc><rect width="1200" height="220" rx="28" fill="#08111f"/><style>text{font-family:Segoe UI,Arial,sans-serif}.h{font-weight:700;font-size:23px}.n{font-size:14px}</style><text x="50" y="48" class="h" fill="#e7eef8">Complete Q6 expert banks on CUDA</text>
  <g transform="translate(50 75)">
    <g fill="#5eead4"><rect x="0" width="29" height="64" rx="6"/><rect x="36" width="29" height="64" rx="6"/><rect x="72" width="29" height="64" rx="6"/><rect x="108" width="29" height="64" rx="6"/><rect x="144" width="29" height="64" rx="6"/><rect x="180" width="29" height="64" rx="6"/><rect x="216" width="29" height="64" rx="6"/><rect x="252" width="29" height="64" rx="6"/><rect x="288" width="29" height="64" rx="6"/><rect x="324" width="29" height="64" rx="6"/><rect x="540" width="29" height="64" rx="6"/><rect x="720" width="29" height="64" rx="6"/></g>
    <g fill="#26384d"><rect x="360" width="29" height="64" rx="6"/><rect x="396" width="29" height="64" rx="6"/><rect x="432" width="29" height="64" rx="6"/><rect x="468" width="29" height="64" rx="6"/><rect x="504" width="29" height="64" rx="6"/><rect x="576" width="29" height="64" rx="6"/><rect x="612" width="29" height="64" rx="6"/><rect x="648" width="29" height="64" rx="6"/><rect x="684" width="29" height="64" rx="6"/><rect x="756" width="29" height="64" rx="6"/><rect x="792" width="29" height="64" rx="6"/><rect x="828" width="29" height="64" rx="6"/><rect x="864" width="29" height="64" rx="6"/><rect x="900" width="29" height="64" rx="6"/><rect x="936" width="29" height="64" rx="6"/><rect x="972" width="29" height="64" rx="6"/><rect x="1008" width="29" height="64" rx="6"/><rect x="1044" width="29" height="64" rx="6"/></g>
    <g class="n" fill="#9fb0c5"><text x="7" y="88">0</text><text x="325" y="88">9</text><text x="540" y="88">15</text><text x="716" y="88">20</text><text x="1037" y="88">29</text></g>
  </g><text x="50" y="190" class="n" fill="#5eead4">12 selected layers</text><text x="220" y="190" class="n" fill="#9fb0c5">128 experts per selected layer · static identity mapping · no eviction</text>
</svg>
